<?xml version="1.0" encoding="utf-8"?>
<!-- Generator: Adobe Illustrator 26.5.0, SVG Export Plug-In . SVG Version: 6.00 Build 0)  -->
<svg version="1.1" id="Layer_1" xmlns="http://www.w3.org/2000/svg" xmlns:xlink="http://www.w3.org/1999/xlink" x="0px" y="0px"
	 viewBox="0 0 512 512" style="enable-background:new 0 0 512 512;" xml:space="preserve">
<style type="text/css">
	.st0{fill:#CC071E;}
</style>
<g id="XMLID_1_">
	<path id="XMLID_2_" class="st0" d="M480.1,95.16c-8.49,3.81-15.22-0.15-25.61,21.22c-32.79,67.33-58.25,122.07-88.7,200.66
		c0.88-64.55,12.44-116.07,19.32-179c1.32-11.56,3.07-27.52,2.78-39.66c-0.15-9.22-9.37-10.39-28.1-1.32
		c-10.39,5.12-22.83,4.68-27.52,16.98c-20.2,52.25-66.89,197.74-88.55,280.14c-5.27,19.76,14.34,23.13,20.2,2.78
		c14.2-49.03,46.84-157.49,66.16-213.4c-1.9,51.23-15.81,132.02-9.37,174.46c2.05,13.32,14.49,19.17,20.93,30.44
		c4.54,8.05,11.86,8.78,15.81-2.2c19.03-51.67,55.91-143,91.48-216.03c-7.03,32.2-33.81,168.46-41.27,222.76
		c-1.46,10.98,11.86,11.12,23.71,27.52c2.63,3.66,12.88,7.76,14.78-1.76c6.29-32.64,47.71-244.28,63.81-311.46
		C514.64,89.45,513.47,80.38,480.1,95.16z"/>
	<path id="XMLID_3_" class="st0" d="M209.62,248.99c14.2-21.22,18.3-16.98,21.81-23.42c4.24-8.05,1.46-15.66-13.76-13.9
		c0,0-5.71,0.44-16.39,1.61c16.83-43.47,31.61-80.21,42.3-108.31c3.66-9.51,4.1-16.39-1.76-17.86c-6.29-1.46-24.59,8.34-35.71,10.25
		c-3.51,0.59-6.88,4.39-8.2,7.03c-18,41.27-34.1,80.5-48.01,116.36c-17.86,3.07-38.64,7.03-61.91,12.29
		c16.69-42.88,33.52-85.18,50.06-125.73c8.05-20.05-13.17-21.95-21.52-1.61c-10.68,26.35-30.88,75.67-53.13,133.19
		c-16.39,3.95-33.81,8.64-51.96,13.9c-13.17,3.81-13.76,7.32-8.05,15.22c3.07,4.39,9.66,3.95,12.59,7.17
		c7.76,8.2,12.29,17.86,26.2,19.32c-12.29,32.79-24.59,66.74-35.71,99.38c-7.03,20.49,12.88,24.74,20.49,2.93
		c12.29-34.98,25.32-70.25,38.64-105.53c11.12-2.63,38.05-8.34,62.94-13.76c-19.76,54.01-32.64,95.14-37.62,115.04
		c-0.88,3.81,0.59,6,1.46,7.61c6.59,9.66,13.03,10.1,21.52,22.1c2.34,3.22,10.1,4.98,12.73-3.07
		c18.3-55.18,37.03-106.99,54.59-153.39C188.4,264.21,201.57,260.99,209.62,248.99z"/>
	<path id="XMLID_4_" class="st0" d="M223.09,333.29c-1.32,1.17-2.63,2.34-3.95,3.66c-1.61-4.68-3.07-9.51-4.54-14.05
		c4.24-5.27,8.49-10.54,12-15.95c14.64-22.83-14.34-36.01-26.78-21.22c-6.73,7.9-4.98,15.66-3.22,22.39
		c0.59,2.05,1.46,4.98,2.49,8.49c-3.51,3.66-7.9,8.2-13.47,14.78c-14.2,16.39-10.39,37.76,4.83,42.59
		c9.22,2.93,17.86-1.32,25.32-7.9c0.44,1.02,0.73,1.9,1.02,2.78c3.95,9.95,16.25,6.88,11.56-5.12c-0.88-2.05-1.76-4.83-2.93-8.2
		c2.34-3.07,4.68-6.15,6.59-9.07C240.94,333.29,232.16,325.39,223.09,333.29z M213.43,301.97c-1.32,1.61-2.63,2.93-3.95,4.24
		c-0.29-1.17-0.59-2.2-0.88-3.07C204.35,287.19,222.65,291.43,213.43,301.97z M203.47,350.56c-5.56,3.37-9.95-0.29-2.49-10.54
		c1.32-1.76,2.49-3.37,3.81-4.98c1.32,3.81,2.63,7.9,3.95,11.71C206.99,348.07,205.23,349.39,203.47,350.56z"/>
</g>
</svg>
